<svg id="Layer_5" enable-background="new 0 0 62 61.999" height="512" viewBox="0 0 62 61.999" width="512" fill="white" xmlns="http://www.w3.org/2000/svg"><g><g><path d="m36.218 15.048c-.284.245-.58.476-.897.679-.837.539-1.321 1.485-1.321 2.481v3.791c0 1.657-1.343 3-3 3s-3-1.343-3-3v-3.75c0-.999-.46-1.972-1.302-2.51-.325-.208-.632-.44-.923-.691-6.023.497-10.775 5.548-10.775 11.697 0 1.845.442 3.688 1.279 5.331l.177.349c.529-.853 1.466-1.426 2.544-1.426h1v-4c0 1.105.895 2 2 2 1.309 0 2.593-.356 3.715-1.029l.712-.427c.525.873 1.481 1.456 2.573 1.456h4c1.092 0 2.048-.584 2.573-1.456l-.002-.001.714.429c1.122.673 2.406 1.029 3.715 1.029 1.105 0 2-.895 2-2v4h1c1.077 0 2.014.572 2.543 1.424l.177-.347c.838-1.642 1.28-3.485 1.28-5.331 0-6.152-4.756-11.205-10.782-11.698z" /></g><g><path d="m20 49.72v-5.441l-1.614-.538c-.048-.122-.099-.244-.152-.365l.762-1.523-3.848-3.848-1.523.762c-.121-.054-.243-.104-.365-.152l-.538-1.614h-5.443l-.538 1.614c-.122.048-.244.099-.365.152l-1.523-.762-3.848 3.848.762 1.523c-.054.121-.104.243-.152.365l-1.615.537v5.441l1.614.538c.048.122.099.244.152.365l-.762 1.522 3.848 3.849 1.523-.762c.121.054.243.104.365.152l.538 1.614h5.441l.538-1.614c.122-.048.244-.099.365-.152l1.523.762 3.848-3.849-.762-1.522c.054-.121.104-.243.152-.365zm-10 1.279c-2.209 0-4-1.791-4-4s1.791-4 4-4 4 1.791 4 4-1.791 4-4 4z" /></g><g><path d="m26 38.999c0 2.757 2.243 5 5 5s5-2.243 5-5v-1h-10zm7.829 1c-.413 1.164-1.525 2-2.829 2s-2.416-.836-2.829-2z"/><path d="m28 34.999h2c0-2.206-1.794-4-4-4s-4 1.794-4 4h2c0-1.103.897-2 2-2s2 .898 2 2z"/><path d="m32 34.999h2c0-1.103.897-2 2-2s2 .897 2 2h2c0-2.206-1.794-4-4-4s-4 1.794-4 4z"/><path d="m10 41.999c-2.757 0-5 2.243-5 5s2.243 5 5 5 5-2.243 5-5-2.243-5-5-5zm0 8c-1.654 0-3-1.346-3-3s1.346-3 3-3 3 1.346 3 3-1.346 3-3 3z"/><path d="m59 44.999h-2.605c2.364-4.277 3.605-9.081 3.605-14 0-13.458-9.467-25.285-22.55-28.261-.149-.154-.295-.31-.456-.453-1.908-1.706-4.473-2.52-7.039-2.227-2.091.236-3.982 1.225-5.397 2.677-13.088 2.974-22.558 14.801-22.558 28.264 0 2.92.45 5.792 1.302 8.555l1.551-1.551.096.048c-.619-2.289-.949-4.652-.949-7.052 0-11.772 7.775-22.2 18.813-25.721-.343.746-.586 1.542-.708 2.375-9.655 3.68-16.105 12.971-16.105 23.346 0 2.351.336 4.669.978 6.904l.301-.904h1.527c-.525-1.948-.806-3.96-.806-6 0-9.273 5.598-17.606 14.059-21.179.247 2.746 1.707 5.233 4.101 6.762.518.331.84.97.84 1.667v3.75c0 .183.03.357.054.534-1.24.695-2.054 2.005-2.054 3.466 0 .393.074.765.18 1.123-.961.573-2.06.877-3.18.877-.552 0-1-.448-1-1s.448-1 1-1h1v-2h-1c-1.654 0-3 1.346-3 3v3c-2.206 0-4 1.794-4 4s1.794 4 4 4h.051c.373 4.115 3.016 7.583 6.668 9.132-4.542 2.03-7.719 6.581-7.719 11.868v3h26v-3c0-5.287-3.177-9.838-7.719-11.868 3.652-1.549 6.295-5.018 6.668-9.132h.051c2.206 0 4-1.794 4-4s-1.794-4-4-4v-3c0-1.654-1.346-3-3-3h-1v2h1c.552 0 1 .448 1 1s-.448 1-1 1c-1.12 0-2.219-.304-3.18-.877.106-.359.18-.731.18-1.123 0-1.461-.814-2.771-2.054-3.466.024-.177.054-.351.054-.534v-3.791c0-.68.322-1.293.862-1.64 2.357-1.515 3.835-3.997 4.086-6.745 8.458 3.575 14.052 11.906 14.052 21.176 0 2.422-.386 4.828-1.132 7.119-.377-1.226-1.521-2.119-2.868-2.119-1.654 0-3 1.346-3 3v11c0 .553.447 1 1 1h11c1.654 0 3-1.346 3-3s-1.346-3-3-3zm-26-25v2c0 1.103-.897 2-2 2s-2-.897-2-2v-2zm-3-11c0-.552.448-1 1-1s1 .448 1 1-.448 1-1 1-1-.448-1-1zm-13 25c0-1.103.897-2 2-2v4c-1.103 0-2-.897-2-2zm15.56 14.124-1.126 1.876h-.867l-1.126-1.876c.511-.073 1.029-.124 1.56-.124s1.048.051 1.559.124zm3.054.904-.392 3.138-1.9-1.425 1.275-2.125c.347.121.686.258 1.017.412zm-4.614 10.558-1.877-1.877 1.632-5.709h.491l1.632 5.709zm-3.597-10.97 1.275 2.125-1.9 1.425-.392-3.138c.331-.154.67-.291 1.017-.412zm-7.403 10.384c0-3.637 1.782-6.857 4.51-8.861l.712 5.695 3-2.25-1.345 4.707 1.709 1.709h-2.586v-4h-2v4h-4zm22 0v1h-4v-4h-2v4h-2.586l1.709-1.709-1.345-4.707 3 2.25.712-5.695c2.728 2.004 4.51 5.224 4.51 8.861zm3-25c0 1.103-.897 2-2 2v-4c1.103 0 2 .898 2 2zm-4-4.184v7.184c0 4.963-4.037 9-9 9h-2c-4.963 0-9-4.037-9-9v-7.184c.314.112.648.184 1 .184 1.478 0 2.927-.401 4.195-1.155.723.712 1.713 1.155 2.805 1.155h4c1.093 0 2.082-.442 2.805-1.154 1.268.754 2.718 1.154 4.195 1.154.352 0 .686-.072 1-.184zm-6-3.816c0 1.103-.897 2-2 2h-4c-1.103 0-2-.897-2-2 0-.644.319-1.23.822-1.598.731.964 1.877 1.598 3.178 1.598s2.447-.633 3.178-1.598c.503.368.822.955.822 1.598zm-.219-11.113c-1.058.68-1.704 1.833-1.768 3.113h-1.013v-6.184c1.161-.414 2-1.514 2-2.816 0-1.654-1.346-3-3-3s-3 1.346-3 3c0 1.302.839 2.402 2 2.816v6.184h-1.015c-.074-1.292-.711-2.439-1.749-3.103-2.309-1.475-3.525-4.089-3.177-6.823.399-3.136 2.974-5.672 6.12-6.027.278-.032.555-.048.829-.048 1.725 0 3.353.617 4.652 1.778 1.487 1.329 2.34 3.232 2.34 5.223 0 2.39-1.204 4.591-3.219 5.887zm24.219 34.113h-10v-10c0-.552.448-1 1-1s1 .448 1 1v3.613c0 .456.309.854.75.968.44.114.903-.084 1.125-.483 2.044-3.691 3.125-7.873 3.125-12.098 0-10.38-6.454-19.674-16.115-23.351-.125-.82-.353-1.618-.693-2.368 11.035 3.522 18.808 13.952 18.808 25.719 0 5.136-1.454 10.137-4.205 14.464-.196.308-.208.697-.033 1.018.176.319.512.519.877.519h4.361c.552 0 1 .448 1 1s-.448.999-1 .999z"/></g></g></svg>