<svg height="496pt" viewBox="0 -22 496 496" fill="white" width="496pt" xmlns="http://www.w3.org/2000/svg"><path d="m264 272h16c-8.839844 0-16-7.160156-16-16s7.160156-16 16-16h48v-16c0-8.839844 7.160156-16 16-16h47.160156c10.894532 0 21.472656 3.710938 29.984375 10.519531l25.976563 20.777344 12.605468-13.449219c23.394532-24.945312 36.273438-57.519531 36.273438-91.71875 0-73.960937-60.167969-134.128906-134.128906-134.128906h-7.863282c-39.199218 0-76.320312 17.070312-101.832031 46.832031l-4.175781 4.878907-4.167969-4.863282c-25.519531-29.777344-62.640625-46.847656-101.839843-46.847656h-7.863282c-73.960937 0-134.128906 60.167969-134.128906 134.128906 0 34.199219 12.878906 66.78125 36.273438 91.726563l12.605468 13.449219 25.976563-20.777344c8.503906-6.816406 19.082031-10.527344 29.984375-10.527344h47.160156c8.839844 0 16 7.160156 16 16v16h48c8.839844 0 16 7.160156 16 16s-7.160156 16-16 16h16c8.839844 0 16 7.160156 16 16 0-8.839844 7.160156-16 16-16zm0 0" /><path d="m312 368c-8.839844 0-16-7.160156-16-16s7.160156-16 16-16h-32c-8.839844 0-16-7.160156-16-16s7.160156-16 16-16h-16c-8.839844 0-16-7.160156-16-16 0 8.839844-7.160156 16-16 16h-16c8.839844 0 16 7.160156 16 16s-7.160156 16-16 16h-32c8.839844 0 16 7.160156 16 16s-7.160156 16-16 16h-14.464844l78.464844 83.695312 78.464844-83.695312zm0 0" /><path d="m450.808594 232-24.664063-19.726562c-9.886719-7.914063-22.3125-12.273438-34.976562-12.273438h-47.167969c-13.230469 0-24 10.769531-24 24v8h-40c-13.230469 0-24 10.769531-24 24 0 3.160156.648438 6.160156 1.761719 8.929688-3.691407 1-7.007813 2.832031-9.761719 5.316406-2.761719-2.484375-6.078125-4.316406-9.761719-5.316406 1.113281-2.769532 1.761719-5.769532 1.761719-8.929688 0-13.230469-10.769531-24-24-24h-40v-8c0-13.230469-10.769531-24-24-24h-47.167969c-12.664062 0-25.089843 4.359375-34.984375 12.273438l-24.65625 19.726562h-45.191406v112h45.191406l24.664063 19.726562c9.886719 7.914063 22.3125 12.273438 34.976562 12.273438h79.167969c13.230469 0 24-10.769531 24-24 0-2.816406-.574219-5.488281-1.472656-8h9.472656c13.230469 0 24-10.769531 24-24 0-3.160156-.648438-6.160156-1.761719-8.929688 3.691407-1 7-2.832031 9.761719-5.308593 2.761719 2.484375 6.078125 4.316406 9.761719 5.316406-1.113281 2.761719-1.761719 5.761719-1.761719 8.921875 0 13.230469 10.769531 24 24 24h9.472656c-.898437 2.511719-1.472656 5.183594-1.472656 8 0 13.230469 10.769531 24 24 24h79.167969c12.664062 0 25.089843-4.359375 34.984375-12.273438l24.65625-19.726562h45.191406v-112zm-218.808594 64h-96v16h80c4.40625 0 8 3.59375 8 8s-3.59375 8-8 8h-80v16h48c4.40625 0 8 3.59375 8 8s-3.59375 8-8 8h-79.167969c-9.046875 0-17.921875-3.113281-24.992187-8.769531l-29.03125-23.230469h-34.808594v-80h34.808594l29.039062-23.230469c7.074219-5.65625 15.945313-8.769531 24.984375-8.769531h47.167969c4.40625 0 8 3.59375 8 8v8h-40v16h96c4.40625 0 8 3.59375 8 8s-3.59375 8-8 8h-80v16h96c4.40625 0 8 3.59375 8 8s-3.59375 8-8 8zm248 32h-34.808594l-29.039062 23.230469c-7.074219 5.65625-15.945313 8.769531-24.984375 8.769531h-79.167969c-4.40625 0-8-3.59375-8-8s3.59375-8 8-8h48v-16h-80c-4.40625 0-8-3.59375-8-8s3.59375-8 8-8h80v-16h-96c-4.40625 0-8-3.59375-8-8s3.59375-8 8-8h96v-16h-80c-4.40625 0-8-3.59375-8-8s3.59375-8 8-8h96v-16h-40v-8c0-4.40625 3.59375-8 8-8h47.167969c9.046875 0 17.921875 3.113281 24.992187 8.769531l29.03125 23.230469h34.808594zm0 0"/><path d="m448 136c0 12.792969-2.679688 25.128906-7.976562 36.664062l14.535156 6.671876c6.273437-13.640626 9.441406-28.222657 9.441406-43.335938 0-57.34375-46.65625-104-104-104v16c48.519531 0 88 39.480469 88 88zm0 0"/></svg>