<?xml version="1.0" encoding="iso-8859-1"?>
<!-- Generator: Adobe Illustrator 19.0.0, SVG Export Plug-In . SVG Version: 6.00 Build 0)  -->
<svg version="1.1" id="Layer_1" xmlns="http://www.w3.org/2000/svg" xmlns:xlink="http://www.w3.org/1999/xlink" x="0px" y="0px"
	 viewBox="0 0 496.016 496.016" style="enable-background:new 0 0 496.016 496.016;" xml:space="preserve">
<g>
	<path d="M232.696,16.508L231.648,0.54c5.384-0.352,10.888-0.528,16.36-0.528v16
		C242.864,16.004,237.76,16.172,232.696,16.508z"/>
	<path d="M76.272,92.02l-11.84-10.768c39.448-43.4,93.04-71.504,150.904-79.12l2.096,15.856
		C163.304,25.124,113.176,51.412,76.272,92.02z"/>
	<path d="M45.28,390.892c-2.96-4.184-5.8-8.488-8.496-12.864l13.608-8.408
		c2.528,4.104,5.176,8.12,7.952,12.04L45.28,390.892z"/>
	<path d="M199.744,491.308c-57.184-11.28-108.848-42.696-145.488-88.472l12.496-10
		c34.264,42.832,82.592,72.216,136.08,82.768L199.744,491.308z"/>
	<path d="M471.56,355.484l-14.408-6.952c2.208-4.584,4.272-9.256,6.176-14l14.84,5.984
		C476.128,345.604,473.896,350.644,471.56,355.484z"/>
	<path d="M483.736,325.26l-15.2-4.984c7.616-23.264,11.48-47.576,11.48-72.272
		c0-26.36-4.384-52.208-13.032-76.84l15.096-5.296c9.248,26.336,13.936,53.968,13.936,82.144
		C496.008,274.396,491.872,300.388,483.736,325.26z"/>
	<path d="M438.2,350.468l-14.08-7.592c2.496-4.632,4.832-9.416,6.944-14.2l14.64,6.456
		C443.432,340.3,440.904,345.46,438.2,350.468z"/>
	<path d="M451.536,320.492l-15.08-5.376C444.12,293.62,448,271.044,448,248.004
		c0-25.792-4.832-50.888-14.384-74.608l14.84-5.968c10.312,25.624,15.536,52.736,15.536,80.576
		C464.008,272.884,459.816,297.26,451.536,320.492z"/>
	<path d="M255.88,48.156c-4.792-0.176-9.632-0.184-14.392-0.048l-0.496-15.984
		c5.144-0.168,10.352-0.16,15.488,0.048L255.88,48.156z"/>
	<path d="M93.384,121.14l-12.36-10.16c36.336-44.232,87.56-71.856,144.24-77.792l1.672,15.904
		C174.464,54.588,127.032,80.18,93.384,121.14z"/>
	<path d="M67.584,366.804c-2.904-4.392-5.672-8.936-8.232-13.512l13.968-7.816
		c2.368,4.24,4.928,8.448,7.608,12.512L67.584,366.804z"/>
	<path d="M216.232,461.684c-55.656-8.208-105.272-37.448-139.704-82.312l12.688-9.736
		c31.888,41.544,77.832,68.616,129.344,76.216L216.232,461.684z"/>
	<path d="M409.8,335.708l-14.064-7.624c2.512-4.648,4.816-9.384,6.816-14.08l14.72,6.28
		C415.064,325.436,412.552,330.62,409.8,335.708z"/>
	<path d="M422.816,305.596l-15.2-5c5.568-16.928,8.4-34.624,8.4-52.592c0-22.024-4.192-43.432-12.472-63.616
		l14.816-6.064c9.064,22.12,13.656,45.56,13.656,69.68C432.008,267.676,428.912,287.06,422.816,305.596z"/>
	<path d="M238.72,80.252l-0.888-15.968c5.408-0.296,10.896-0.368,16.32-0.176l-0.512,15.984
		C248.672,79.932,243.656,79.98,238.72,80.252z"/>
	<path d="M116.44,143.516l-12.512-9.952c29.52-37.128,71.52-61.184,118.248-67.76l2.232,15.84
		C181.752,87.644,143.408,109.612,116.44,143.516z"/>
	<path d="M96.344,352.228c-3.016-4.384-5.904-9-8.576-13.728l13.92-7.872c2.448,4.312,5.08,8.528,7.832,12.52
		L96.344,352.228z"/>
	<path d="M222.928,430.308c-45.896-6.256-87.472-29.504-117.064-65.448l12.36-10.168
		c27.016,32.832,64.968,54.048,106.856,59.76L222.928,430.308z"/>
</g>
<path style="fill:#FFA64D;" d="M248,496.004c-16.088,0-32.328-1.592-48.264-4.728l-12.552-2.48l7.72-10.2
	c13.8-18.24,21.096-39.888,21.096-62.592c0-57.344-46.656-104-104-104c-30.088,0-58.696,13.104-78.504,35.944l-8.36,9.632
	l-5.04-11.712C6.76,314.876,0,281.948,0,248.004c0-62.056,23.048-121.448,64.896-167.248l8.912-9.76l4.512,12.432
	c14.888,41.016,54.144,68.576,97.672,68.576c57.344,0,104-46.656,104-104c0-11.752-2.072-23.504-6.152-34.952L269.4,0.62
	l13.072,1.824c92.216,12.832,168.68,75.464,199.544,163.448l4.136,11.768l-12.424-1.152c-3.2-0.296-6.44-0.496-9.728-0.496
	c-57.344,0-104,46.656-104,104c0,49.28,35,92.144,83.216,101.912l12.264,2.488l-7.4,10.096
	C401.48,458.06,326.672,496.004,248,496.004z"/>
<g>
	<path d="M248.008,312.004c-35.288,0-64-28.712-64-64s28.712-64,64-64s64,28.712,64,64
		S283.296,312.004,248.008,312.004z M248.008,200.004c-26.472,0-48,21.528-48,48s21.528,48,48,48s48-21.528,48-48
		S274.48,200.004,248.008,200.004z"/>
	<path d="M248.008,400.004c-9.448,0-19.16-0.944-28.84-2.808l3.016-15.72
		c8.704,1.672,17.392,2.52,25.832,2.52c43.536,0,84.792-21.208,110.36-56.744l12.984,9.344
		C342.792,376.3,296.68,400.004,248.008,400.004z"/>
	<path d="M108.008,307.3c-7.96-18.792-12-38.736-12-59.296c0-36.48,13.224-71.808,37.24-99.488l12.08,10.488
		c-21.488,24.768-33.32,56.376-33.32,89c0,18.408,3.608,36.248,10.736,53.048L108.008,307.3z"/>
	<path d="M357.496,167.556c-21.144-28.736-52.104-47.752-87.168-53.552l2.608-15.784
		c39.208,6.488,73.824,27.744,97.456,59.848L357.496,167.556z"/>
	<path d="M376.608,204.084c-2.84-8.328-6.528-16.44-10.96-24.088l13.84-8.016
		c4.952,8.552,9.08,17.616,12.256,26.928L376.608,204.084z"/>
</g>
<g>
</g>
<g>
</g>
<g>
</g>
<g>
</g>
<g>
</g>
<g>
</g>
<g>
</g>
<g>
</g>
<g>
</g>
<g>
</g>
<g>
</g>
<g>
</g>
<g>
</g>
<g>
</g>
<g>
</g>
</svg>
